# xmcd
#
# Track frame offsets:
#	150
#	16221
#	32124
#	46559
#	69279
#	86795
#	105661
#	120733
#	137138
#	155467
#	173156
#	189902
#	212888
#	230477
#	248888
#	272995
#
# Disc length: 3899 seconds
#
# Revision: 0
# Processed by: cddbd v1.5.2PL0 Copyright (c) Steve Scherf et al.
# Submitted via: dBpowerAMP V4.0
#
DISCID=d70f3910
DTITLE=Jose-Luis Perales - Tesoros de colección
DYEAR=1900
DGENRE=
TTITLE0=Te quiero tanto
TTITLE1=Es más joven que tú
TTITLE2=Como decirte
TTITLE3=Acosado
TTITLE4=La vida
TTITLE5=Amor adolescente
TTITLE6=Me hablaba de tí
TTITLE7=De no ser lo que soy
TTITLE8=Decidieron volar
TTITLE9=Me han contado que existe un paraíso
TTITLE10=Dime
TTITLE11=Amame
TTITLE12=Carlo Caruso
TTITLE13=El rincón de Andrés
TTITLE14=Buenos días tristeza
TTITLE15=Desamor
EXTD=
EXTT0=
EXTT1=
EXTT2=
EXTT3=
EXTT4=
EXTT5=
EXTT6=
EXTT7=
EXTT8=
EXTT9=
EXTT10=
EXTT11=
EXTT12=
EXTT13=
EXTT14=
EXTT15=
PLAYORDER=
